<svg width="233" height="241" viewBox="0 0 233 241" fill="none" xmlns="http://www.w3.org/2000/svg" aria-hidden="true">
  <path d="M198 240.573H169V128L189.5 128L198 136.544V240.573Z" fill="currentColor"/>
  <path d="M0 114.5V0H51.5L112.006 61V114.5H72.5V34.5L67.5 29.5H39.5V114.5H0Z" fill="currentColor"/>
  <path d="M89.0933 128.75L111.779 151.436L23.3821 240.549L0.696079 217.147L89.0933 128.75Z" fill="currentColor"/>
  <path d="M111.779 217.146L89.0928 240.544L0.695564 151.434L23.3816 128.748L111.779 217.146Z" fill="currentColor"/>
  <path d="M189.5 128L218.481 157L120 157V128H189.5Z" fill="currentColor"/>
  <path d="M120 28.8739V0H233V28.8739H120Z" fill="currentColor"/>
  <path d="M133.006 71.687L120 58.7435V42.813H233V71.687H133.006Z" fill="currentColor"/>
  <path d="M175.997 114.5L147.056 85.6261H233V114.5H175.997Z" fill="currentColor"/>
</svg>
